<svg width="20" height="20" viewBox="0 0 20 20" fill="none" xmlns="http://www.w3.org/2000/svg">
<path fill-rule="evenodd" clip-rule="evenodd" d="M9.9999 0C4.48588 0 0 4.4858 0 9.99975C0 15.514 4.48588 20 9.9999 20C15.5139 20 20 15.514 20 9.99975C20 4.4858 15.5139 0 9.9999 0ZM9.9999 19.5415C4.7389 19.5415 0.45859 15.2609 0.45859 9.99974C0.45859 4.73872 4.7389 0.45859 9.9999 0.45859C15.2609 0.45859 19.5413 4.73872 19.5413 9.99974C19.5413 15.2609 15.2609 19.5415 9.9999 19.5415ZM15.5538 9.83614C15.5538 8.77249 15.1782 8.03642 14.8564 7.46339C14.8227 7.40756 14.7891 7.35241 14.7559 7.29783C14.367 6.65923 14.0256 6.09876 14.0256 5.44555C14.0256 4.65481 14.6151 3.91864 15.446 3.91864C15.4712 3.91864 15.4955 3.92069 15.5198 3.92275L15.5198 3.92275C15.5317 3.92375 15.5436 3.92476 15.5555 3.92552C14.0508 2.52305 12.0461 1.66669 9.84426 1.66669C6.88937 1.66669 4.29006 3.209 2.77777 5.54449C2.97636 5.55097 3.16341 5.55492 3.32208 5.55492C4.20654 5.55492 5.57618 5.44555 5.57618 5.44555C6.03189 5.41842 6.08575 6.0997 5.63033 6.15458C5.63033 6.15458 5.17192 6.20906 4.66235 6.2363L7.74207 15.5556L9.59321 9.90895L8.27563 6.2363C7.81992 6.20906 7.38849 6.15458 7.38849 6.15458C6.93267 6.12714 6.98613 5.41842 7.44214 5.44555C7.44214 5.44555 8.83866 5.55492 9.66966 5.55492C10.5539 5.55492 11.9239 5.44555 11.9239 5.44555C12.3798 5.41842 12.4335 6.0997 11.9778 6.15458C11.9778 6.15458 11.519 6.20906 11.0099 6.2363L14.0665 15.4846L14.9102 12.6174L14.9797 12.3913C15.3101 11.3172 15.5538 10.525 15.5538 9.83614ZM1.66669 10.1266C1.66669 13.4916 3.70716 16.4 6.66669 17.7778L2.43487 6.66669C1.94265 7.72394 1.66669 8.89407 1.66669 10.1266ZM7.77777 17.986L10.219 10.5555L12.7195 17.7328C12.7359 17.7749 12.7561 17.8136 12.7778 17.8502C11.9322 18.162 11.0235 18.3333 10.0761 18.3333C9.27764 18.3333 8.50683 18.2106 7.77777 17.986ZM17.7942 6.11108C17.8326 6.38753 17.8542 6.68411 17.8542 7.00367C17.8542 7.8841 17.6844 8.87425 17.1745 10.1126L14.4445 17.7778C17.1018 16.2732 18.8889 13.4775 18.8889 10.2752C18.8889 8.76606 18.4919 7.34734 17.7942 6.11108Z" fill="#DFF2FE"/>
</svg>
