<svg width="23" height="20" viewBox="0 0 23 20" fill="none" xmlns="http://www.w3.org/2000/svg">
<path fill-rule="evenodd" clip-rule="evenodd" d="M17.2273 0.300122C19.1492 1.37806 18.604 4.55752 18.1703 6.27208C19.9259 6.76331 23 7.83346 23 9.98146C23 12.1172 19.9389 13.2469 18.2201 13.7404C18.6634 15.4757 19.1633 18.6125 17.244 19.6934C15.3307 20.7708 12.8654 18.7588 11.5425 17.5171C10.2158 18.765 7.6646 20.764 5.73717 19.6828C3.82257 18.6084 4.38271 15.5263 4.82768 13.7915C3.05452 13.2991 0 12.1442 0 9.98146C0 7.81261 3.0577 6.75108 4.84142 6.25823C4.39809 4.53292 3.80842 1.40618 5.72058 0.329337C7.64083 -0.752024 10.2 1.29571 11.5107 2.51783C12.8251 1.28341 15.3144 -0.773116 17.2273 0.300122ZM16.7878 9.98623C17.2684 10.971 17.6613 11.9243 17.9524 12.8208C19.3082 12.4298 22.0175 11.5923 22.0175 9.98146C22.0175 8.38561 19.1942 7.556 17.9072 7.193C17.6242 8.08369 17.2465 9.02469 16.7878 9.98623ZM12.2266 16.8315C13.2036 17.7458 15.3241 19.67 16.7517 18.8662C18.1855 18.0587 17.5817 15.2103 17.2696 13.9828C16.317 14.1971 15.2666 14.354 14.1546 14.4499C13.5225 15.3402 12.8748 16.1418 12.2266 16.8315ZM5.78034 14.0256C5.45298 15.3035 4.80043 18.0538 6.22811 18.8547C7.66245 19.6592 10.0244 17.616 10.8542 16.8352C10.1826 16.1339 9.5161 15.3332 8.87984 14.4622C7.76526 14.3742 6.72239 14.2284 5.78034 14.0256ZM5.10526 7.17892C3.78892 7.541 0.982476 8.36461 0.982476 9.98146C0.982476 11.5993 3.83616 12.5212 5.09132 12.8708C5.38182 11.9493 5.76476 10.982 6.22628 10.0048C5.77066 9.04185 5.39312 8.08961 5.10526 7.17892ZM10.8222 3.2001C9.8706 2.31525 7.64635 0.349353 6.21284 1.15657C4.78087 1.96291 5.43662 4.63131 5.79377 6.02285C6.74571 5.813 7.78121 5.65638 8.8629 5.55885C9.49371 4.69277 10.154 3.89811 10.8222 3.2001ZM16.9546 6.95431C16.2944 6.80769 15.5913 6.68785 14.8575 6.59777C15.344 7.33969 15.7967 8.10254 16.2184 8.881C16.5094 8.21854 16.7564 7.57231 16.9546 6.95431ZM12.8645 5.47269C12.418 4.89408 11.9641 4.36075 11.511 3.88315C11.0507 4.36629 10.593 4.89883 10.1461 5.47208C11.0517 5.43085 11.9588 5.431 12.8645 5.47269ZM6.05914 6.94423C6.25905 7.57108 6.50386 8.22015 6.78998 8.88031C7.20444 8.09885 7.65639 7.33631 8.1443 6.596C7.4152 6.68461 6.71537 6.80138 6.05914 6.94423ZM6.0456 13.1036C6.70163 13.2425 7.41206 13.3534 8.16523 13.4352C7.67012 12.6878 7.21127 11.9179 6.7911 11.1283C6.49886 11.8027 6.24867 12.4658 6.0456 13.1036ZM10.1543 14.5362C10.608 15.1178 11.0725 15.6585 11.5382 16.1473C11.9883 15.6652 12.4405 15.1237 12.8884 14.5315C11.9777 14.5711 11.0651 14.571 10.1543 14.5362ZM17.0002 13.0622C16.7944 12.4352 16.5352 11.7757 16.2278 11.094C15.8048 11.8874 15.3448 12.6621 14.8547 13.4181C15.6133 13.3295 16.3333 13.2103 17.0002 13.0622ZM9.41758 13.5418C10.8112 13.6297 12.2131 13.6308 13.6063 13.5339C14.3823 12.3998 15.0858 11.2163 15.698 9.99085C15.0784 8.77585 14.3797 7.59777 13.5983 6.47431C12.2036 6.37085 10.8004 6.37115 9.40577 6.47369C8.61764 7.59723 7.91783 8.77838 7.31224 10.0045C7.92074 11.2331 8.62569 12.4165 9.41758 13.5418ZM17.2189 6.03277C17.5322 4.7902 18.1705 1.93272 16.7366 1.12815C15.3165 0.331453 13.1633 2.2957 12.1995 3.19961C12.8568 3.8886 13.5117 4.68465 14.1437 5.56008C15.2285 5.65915 16.2648 5.81854 17.2189 6.03277ZM11.5 7.98346C12.6343 7.98346 13.5538 8.87807 13.5538 9.98146C13.5538 11.085 12.6343 11.9795 11.5 11.9795C10.3657 11.9795 9.44613 11.085 9.44613 9.98146C9.44613 8.87807 10.3657 7.98346 11.5 7.98346Z" fill="#DFF2FE"/>
</svg>
